<mxfile host="Electron" modified="2025-01-16T14:50:56.739Z" agent="Mozilla/5.0 (Macintosh; Intel Mac OS X 10_15_7) AppleWebKit/537.36 (KHTML, like Gecko) draw.io/24.5.1 Chrome/124.0.6367.207 Electron/30.0.6 Safari/537.36" etag="N40qJVwby6HtnceS6QDO" version="24.5.1" type="device">
  <diagram name="Page-1" id="6EIJY7UBjcaoEO0iq-nJ">
    <mxGraphModel dx="932" dy="402" grid="1" gridSize="10" guides="1" tooltips="1" connect="1" arrows="1" fold="1" page="1" pageScale="1" pageWidth="1600" pageHeight="1200" background="none" math="0" shadow="0">
      <root>
        <mxCell id="0" />
        <mxCell id="1" parent="0" />
        <mxCell id="fnIcCWaUuNkAFW9PksQ2-1" value="GrowthBook" style="whiteSpace=wrap;html=1;fontStyle=1;rounded=0;" vertex="1" parent="1">
          <mxGeometry x="150" y="220" width="120" height="30" as="geometry" />
        </mxCell>
        <mxCell id="fnIcCWaUuNkAFW9PksQ2-2" value="Open Feature" style="whiteSpace=wrap;html=1;fontStyle=1;rounded=0;" vertex="1" parent="1">
          <mxGeometry x="270" y="220" width="120" height="30" as="geometry" />
        </mxCell>
        <mxCell id="fnIcCWaUuNkAFW9PksQ2-4" value="K8S Native" style="whiteSpace=wrap;html=1;rounded=0;" vertex="1" parent="1">
          <mxGeometry x="520" y="170" width="120" height="40" as="geometry" />
        </mxCell>
        <mxCell id="fnIcCWaUuNkAFW9PksQ2-5" value="YAML declarativo" style="whiteSpace=wrap;html=1;rounded=0;" vertex="1" parent="1">
          <mxGeometry x="520" y="210" width="120" height="40" as="geometry" />
        </mxCell>
        <mxCell id="fnIcCWaUuNkAFW9PksQ2-6" value="Tipos de valores" style="whiteSpace=wrap;html=1;rounded=0;" vertex="1" parent="1">
          <mxGeometry x="520" y="250" width="120" height="40" as="geometry" />
        </mxCell>
        <mxCell id="fnIcCWaUuNkAFW9PksQ2-8" value="Storage" style="whiteSpace=wrap;html=1;rounded=0;" vertex="1" parent="1">
          <mxGeometry x="520" y="290" width="120" height="40" as="geometry" />
        </mxCell>
        <mxCell id="fnIcCWaUuNkAFW9PksQ2-9" value="GIT Ops" style="whiteSpace=wrap;html=1;rounded=0;" vertex="1" parent="1">
          <mxGeometry x="520" y="410" width="120" height="40" as="geometry" />
        </mxCell>
        <mxCell id="fnIcCWaUuNkAFW9PksQ2-10" value="Exportação" style="whiteSpace=wrap;html=1;rounded=0;" vertex="1" parent="1">
          <mxGeometry x="520" y="370" width="120" height="40" as="geometry" />
        </mxCell>
        <mxCell id="fnIcCWaUuNkAFW9PksQ2-11" value="Pers. Métricas" style="whiteSpace=wrap;html=1;rounded=0;" vertex="1" parent="1">
          <mxGeometry x="520" y="330" width="120" height="40" as="geometry" />
        </mxCell>
        <mxCell id="fnIcCWaUuNkAFW9PksQ2-12" value="SDKs" style="whiteSpace=wrap;html=1;rounded=0;" vertex="1" parent="1">
          <mxGeometry x="520" y="530" width="120" height="40" as="geometry" />
        </mxCell>
        <mxCell id="fnIcCWaUuNkAFW9PksQ2-13" value="Self-hosted" style="whiteSpace=wrap;html=1;rounded=0;" vertex="1" parent="1">
          <mxGeometry x="520" y="490" width="120" height="40" as="geometry" />
        </mxCell>
        <mxCell id="fnIcCWaUuNkAFW9PksQ2-14" value="Extensibilidade" style="whiteSpace=wrap;html=1;rounded=0;" vertex="1" parent="1">
          <mxGeometry x="520" y="450" width="120" height="40" as="geometry" />
        </mxCell>
        <mxCell id="fnIcCWaUuNkAFW9PksQ2-16" value="Observabilidade" style="text;html=1;align=center;verticalAlign=middle;resizable=0;points=[];autosize=1;strokeColor=none;fillColor=none;fontSize=9;fontStyle=0;rounded=0;" vertex="1" parent="1">
          <mxGeometry x="30" y="225" width="90" height="20" as="geometry" />
        </mxCell>
        <mxCell id="fnIcCWaUuNkAFW9PksQ2-17" value="Métricas" style="whiteSpace=wrap;html=1;fillColor=#d5e8d4;strokeColor=#82b366;rounded=0;" vertex="1" parent="1">
          <mxGeometry x="10" y="250" width="140" height="80" as="geometry" />
        </mxCell>
        <mxCell id="fnIcCWaUuNkAFW9PksQ2-18" value="Logging" style="whiteSpace=wrap;html=1;fillColor=none;rounded=0;" vertex="1" parent="1">
          <mxGeometry x="690" y="260" width="140" height="30" as="geometry" />
        </mxCell>
        <mxCell id="fnIcCWaUuNkAFW9PksQ2-20" value="Auditoria" style="whiteSpace=wrap;html=1;fillColor=none;rounded=0;" vertex="1" parent="1">
          <mxGeometry x="690" y="320" width="140" height="30" as="geometry" />
        </mxCell>
        <mxCell id="fnIcCWaUuNkAFW9PksQ2-21" value="Dashboards" style="whiteSpace=wrap;html=1;fillColor=none;rounded=0;" vertex="1" parent="1">
          <mxGeometry x="690" y="350" width="140" height="30" as="geometry" />
        </mxCell>
        <mxCell id="fnIcCWaUuNkAFW9PksQ2-23" value="observabilidade" style="whiteSpace=wrap;html=1;fillColor=#d5e8d4;strokeColor=#82b366;fontSize=8;rounded=0;" vertex="1" parent="1">
          <mxGeometry x="560" y="90" width="70" height="20" as="geometry" />
        </mxCell>
        <mxCell id="fnIcCWaUuNkAFW9PksQ2-24" value="sdk" style="whiteSpace=wrap;html=1;fillColor=#e1d5e7;strokeColor=#9673a6;fontSize=8;rounded=0;" vertex="1" parent="1">
          <mxGeometry x="630" y="90" width="40" height="20" as="geometry" />
        </mxCell>
        <mxCell id="fnIcCWaUuNkAFW9PksQ2-25" value="flexibilidade" style="whiteSpace=wrap;html=1;fillColor=#dae8fc;strokeColor=#6c8ebf;fontSize=8;rounded=0;" vertex="1" parent="1">
          <mxGeometry x="670" y="90" width="60" height="20" as="geometry" />
        </mxCell>
        <mxCell id="fnIcCWaUuNkAFW9PksQ2-28" value="devX" style="whiteSpace=wrap;html=1;fillColor=#fff2cc;strokeColor=#d6b656;fontSize=8;rounded=0;" vertex="1" parent="1">
          <mxGeometry x="730" y="90" width="40" height="20" as="geometry" />
        </mxCell>
        <mxCell id="fnIcCWaUuNkAFW9PksQ2-29" value="&lt;span style=&quot;&quot;&gt;❌&lt;/span&gt;&amp;nbsp;Integração nativa com Prometheus" style="whiteSpace=wrap;html=1;fontSize=7;align=left;spacing=8;rounded=0;" vertex="1" parent="1">
          <mxGeometry x="150" y="250" width="120" height="80" as="geometry" />
        </mxCell>
        <mxCell id="fnIcCWaUuNkAFW9PksQ2-31" value="Alertas" style="whiteSpace=wrap;html=1;fillColor=#d5e8d4;strokeColor=#82b366;rounded=0;" vertex="1" parent="1">
          <mxGeometry x="10" y="330" width="140" height="80" as="geometry" />
        </mxCell>
        <mxCell id="fnIcCWaUuNkAFW9PksQ2-32" value="&lt;div style=&quot;&quot;&gt;&lt;span style=&quot;background-color: initial;&quot;&gt;❌&amp;nbsp;&lt;/span&gt;&lt;span style=&quot;background-color: initial;&quot;&gt;Prometheus/AlertManager&lt;/span&gt;&lt;br&gt;&lt;/div&gt;&lt;div style=&quot;&quot;&gt;✅ Integrações com email/Slack&lt;span style=&quot;background-color: initial;&quot;&gt;&lt;br&gt;&lt;/span&gt;&lt;/div&gt;&lt;div style=&quot;&quot;&gt;&lt;span style=&quot;background-color: initial;&quot;&gt;❌ Alertas customizados&lt;/span&gt;&lt;br&gt;&lt;/div&gt;" style="whiteSpace=wrap;html=1;fontSize=7;spacing=8;align=left;rounded=0;" vertex="1" parent="1">
          <mxGeometry x="150" y="330" width="120" height="80" as="geometry" />
        </mxCell>
        <mxCell id="fnIcCWaUuNkAFW9PksQ2-33" value="&lt;div style=&quot;text-align: left;&quot;&gt;&lt;span style=&quot;background-color: initial;&quot;&gt;✅ Integração nativa com Prometheus&lt;/span&gt;&lt;/div&gt;&lt;div style=&quot;text-align: left;&quot;&gt;✅ Suporte a OpenTelemetry&lt;br&gt;&lt;/div&gt;&lt;div style=&quot;text-align: left;&quot;&gt;✅ Instrumentação automática&lt;br&gt;&lt;/div&gt;" style="whiteSpace=wrap;html=1;fontSize=7;spacing=8;horizontal=1;fontFamily=Verdana;rounded=0;" vertex="1" parent="1">
          <mxGeometry x="270" y="250" width="120" height="80" as="geometry" />
        </mxCell>
        <mxCell id="fnIcCWaUuNkAFW9PksQ2-36" value="K8S" style="whiteSpace=wrap;html=1;fillColor=#d5e8d4;strokeColor=#82b366;rounded=0;" vertex="1" parent="1">
          <mxGeometry x="10" y="410" width="140" height="80" as="geometry" />
        </mxCell>
        <mxCell id="fnIcCWaUuNkAFW9PksQ2-38" value="&lt;div style=&quot;&quot;&gt;&lt;span style=&quot;background-color: initial;&quot;&gt;❌&amp;nbsp;&lt;/span&gt;&lt;span style=&quot;background-color: initial;&quot;&gt;Prometheus/AlertManager&lt;/span&gt;&lt;br&gt;&lt;/div&gt;&lt;div style=&quot;&quot;&gt;✅ Integrações com email/Slack&lt;span style=&quot;background-color: initial;&quot;&gt;&lt;br&gt;&lt;/span&gt;&lt;/div&gt;&lt;div style=&quot;&quot;&gt;&lt;span style=&quot;background-color: initial;&quot;&gt;❌ Alertas customizados&lt;/span&gt;&lt;br&gt;&lt;/div&gt;" style="whiteSpace=wrap;html=1;fontSize=7;spacing=8;align=left;rounded=0;" vertex="1" parent="1">
          <mxGeometry x="150" y="410" width="120" height="80" as="geometry" />
        </mxCell>
        <mxCell id="fnIcCWaUuNkAFW9PksQ2-39" value="&lt;div style=&quot;&quot;&gt;Suporta Sidecar&lt;/div&gt;&lt;div style=&quot;&quot;&gt;Possui Operator&lt;/div&gt;&lt;div style=&quot;&quot;&gt;Suporta YAML&lt;/div&gt;&lt;div style=&quot;&quot;&gt;Métricas K8S Native&lt;/div&gt;" style="whiteSpace=wrap;html=1;fontSize=7;spacing=8;align=left;rounded=0;" vertex="1" parent="1">
          <mxGeometry x="270" y="410" width="120" height="80" as="geometry" />
        </mxCell>
        <mxCell id="fnIcCWaUuNkAFW9PksQ2-40" value="&lt;div style=&quot;&quot;&gt;&lt;span style=&quot;background-color: initial;&quot;&gt;❌&amp;nbsp;&lt;/span&gt;&lt;span style=&quot;background-color: initial;&quot;&gt;Prometheus/AlertManager&lt;/span&gt;&lt;br&gt;&lt;/div&gt;&lt;div style=&quot;&quot;&gt;✅ Integrações com email/Slack&lt;span style=&quot;background-color: initial;&quot;&gt;&lt;br&gt;&lt;/span&gt;&lt;/div&gt;&lt;div style=&quot;&quot;&gt;&lt;span style=&quot;background-color: initial;&quot;&gt;❌ Alertas customizados&lt;/span&gt;&lt;br&gt;&lt;/div&gt;" style="whiteSpace=wrap;html=1;fontSize=7;spacing=8;align=left;rounded=0;" vertex="1" parent="1">
          <mxGeometry x="270" y="330" width="120" height="80" as="geometry" />
        </mxCell>
      </root>
    </mxGraphModel>
  </diagram>
</mxfile>
